<svg xmlns="http://www.w3.org/2000/svg" width="760" height="520" viewBox="0 0 760 520" role="img" aria-labelledby="title desc"><title id="title">AI導入支援</title><desc id="desc">業務分析からAI導入計画へ進むコンサルティングの図</desc><defs><linearGradient id="g" x1="108" y1="66" x2="646" y2="450"><stop stop-color="#2F80ED"/><stop offset="1" stop-color="#3DD5F3"/></linearGradient><filter id="s"><feDropShadow dx="0" dy="18" stdDeviation="18" flood-color="#133A63" flood-opacity=".14"/></filter></defs><rect width="760" height="520" rx="36" fill="#F7F9FC"/><circle cx="604" cy="110" r="92" fill="#3DD5F3" opacity=".16"/><g filter="url(#s)"><rect x="92" y="92" width="292" height="316" rx="30" fill="#fff"/><rect x="124" y="132" width="228" height="20" rx="10" fill="#D7E9FF"/><rect x="124" y="178" width="168" height="16" rx="8" fill="#E7EEF8"/><rect x="124" y="214" width="204" height="16" rx="8" fill="#E7EEF8"/><rect x="124" y="274" width="82" height="82" rx="22" fill="url(#g)" opacity=".92"/><path d="M148 316h34m-17-17v34" stroke="#fff" stroke-width="8" stroke-linecap="round"/></g><g filter="url(#s)"><rect x="410" y="146" width="232" height="216" rx="30" fill="#fff"/><path d="M456 284c34-72 90-72 124 0" fill="none" stroke="#2F80ED" stroke-width="8" stroke-linecap="round"/><circle cx="456" cy="284" r="12" fill="#3DD5F3"/><circle cx="580" cy="284" r="12" fill="#133A63"/><text x="526" y="226" text-anchor="middle" font-family="Manrope,sans-serif" font-size="34" font-weight="900" fill="#133A63">AI</text></g></svg>
