<svg xmlns="http://www.w3.org/2000/svg" width="760" height="520" viewBox="0 0 760 520" role="img" aria-labelledby="title desc"><title id="title">日本のビジネスミーティング</title><desc id="desc">AI導入について話し合うビジネスミーティングのイラスト</desc><rect width="760" height="520" rx="36" fill="#F7F9FC"/><circle cx="620" cy="118" r="88" fill="#3DD5F3" opacity=".14"/><rect x="118" y="112" width="524" height="252" rx="32" fill="#fff" stroke="#DCE8F5" stroke-width="2"/><rect x="178" y="284" width="404" height="92" rx="28" fill="#EAF4FF"/><g fill="#133A63"><circle cx="228" cy="214" r="28"/><circle cx="380" cy="198" r="30"/><circle cx="532" cy="214" r="28"/></g><g fill="#2F80ED" opacity=".9"><path d="M178 300c10-34 88-34 100 0v36H178Z"/><path d="M326 286c12-38 96-38 108 0v50H326Z"/><path d="M482 300c10-34 88-34 100 0v36H482Z"/></g><rect x="284" y="132" width="192" height="74" rx="20" fill="#133A63"/><text x="380" y="177" text-anchor="middle" font-family="Manrope,sans-serif" font-size="24" font-weight="900" fill="#fff">AI Plan</text><path d="M264 248h232" stroke="#3DD5F3" stroke-width="4" stroke-linecap="round"/></svg>
