<svg xmlns="http://www.w3.org/2000/svg" width="760" height="520" viewBox="0 0 760 520" role="img" aria-labelledby="title desc"><title id="title">導入モデルケース</title><desc id="desc">複数の業務フローがAIに集約されるモデルケース図</desc><rect width="760" height="520" rx="36" fill="#F7F9FC"/><g fill="#fff" stroke="#DCE8F5" stroke-width="2"><rect x="78" y="104" width="184" height="82" rx="22"/><rect x="78" y="224" width="184" height="82" rx="22"/><rect x="78" y="344" width="184" height="82" rx="22"/><rect x="498" y="164" width="184" height="82" rx="22"/><rect x="498" y="284" width="184" height="82" rx="22"/></g><circle cx="380" cy="260" r="78" fill="#133A63"/><text x="380" y="270" text-anchor="middle" font-family="Manrope,sans-serif" font-size="34" font-weight="900" fill="#fff">AI</text><g stroke="#2F80ED" stroke-width="3" stroke-linecap="round" fill="none"><path d="M262 145 315 224"/><path d="M262 265h40"/><path d="M262 385 315 296"/><path d="M458 236 498 205"/><path d="M458 284 498 325"/></g><g font-family="'Noto Sans JP',sans-serif" font-size="16" font-weight="800" fill="#133A63"><text x="170" y="152" text-anchor="middle">メール</text><text x="170" y="272" text-anchor="middle">会議</text><text x="170" y="392" text-anchor="middle">社内文書</text><text x="590" y="212" text-anchor="middle">回答案</text><text x="590" y="332" text-anchor="middle">改善提案</text></g></svg>
