<svg xmlns="http://www.w3.org/2000/svg" width="760" height="520" viewBox="0 0 760 520" role="img" aria-labelledby="engineer-working-title engineer-working-desc">
  <title id="engineer-working-title">Engineer Working</title>
  <desc id="engineer-working-desc">X-PROSPECT premium vector illustration</desc>
  <defs>
    <linearGradient id="engineer-working-blue" x1="96" y1="70" x2="660" y2="456" gradientUnits="userSpaceOnUse">
      <stop offset="0" stop-color="#0B2D57"/>
      <stop offset=".58" stop-color="#1F6FE5"/>
      <stop offset="1" stop-color="#34D4F4"/>
    </linearGradient>
    <linearGradient id="engineer-working-surface" x1="80" y1="48" x2="680" y2="472" gradientUnits="userSpaceOnUse">
      <stop offset="0" stop-color="#FFFFFF"/>
      <stop offset="1" stop-color="#F5F9FF"/>
    </linearGradient>
    <filter id="engineer-working-shadow" x="-20%" y="-20%" width="140%" height="150%">
      <feDropShadow dx="0" dy="24" stdDeviation="24" flood-color="#0B2D57" flood-opacity=".12"/>
    </filter>
    <filter id="engineer-working-soft" x="-20%" y="-20%" width="140%" height="150%">
      <feDropShadow dx="0" dy="12" stdDeviation="14" flood-color="#0B2D57" flood-opacity=".08"/>
    </filter>
    <pattern id="engineer-working-grid" width="32" height="32" patternUnits="userSpaceOnUse">
      <path d="M32 0H0v32" fill="none" stroke="#D7E5F5" stroke-width="1" opacity=".55"/>
    </pattern>
  </defs>
  <rect width="760" height="520" rx="40" fill="#F7FAFE"/>
  <circle cx="620" cy="120" r="106" fill="#78E0F2" opacity=".16"/>
  <circle cx="130" cy="430" r="150" fill="#2F80ED" opacity=".06"/>
  <rect x="44" y="40" width="672" height="440" rx="36" fill="url(#engineer-working-surface)" stroke="#DDE8F5"/>
  <rect x="76" y="72" width="608" height="376" rx="28" fill="url(#engineer-working-grid)" opacity=".45"/>

  <g filter="url(#engineer-working-shadow)">
    <rect x="122" y="130" width="516" height="250" rx="30" fill="#FFFFFF" stroke="#DDE8F5" filter="url(#engineer-working-soft)"/>
    <circle cx="250" cy="246" r="46" fill="#0B2D57"/><path d="M170 364c12-86 148-86 160 0" fill="#2F80ED"/>
    <rect x="380" y="170" width="190" height="92" rx="22" fill="#0B2D57" stroke="#0B2D57" filter="url(#engineer-working-soft)"/><path d="M432 216l-24 24 24 24M518 216l24 24-24 24" fill="none" stroke="#34D4F4" stroke-width="8" stroke-linecap="round" stroke-linejoin="round"/>
    <rect x="380" y="292" width="230" height="18" rx="9" fill="#CFE0F5"/><rect x="426" y="330" width="150" height="14" rx="7" fill="#E4ECF7"/>
  </g>

</svg>
