<svg xmlns="http://www.w3.org/2000/svg" width="760" height="520" viewBox="0 0 760 520" role="img" aria-labelledby="title desc"><title id="title">特許技術</title><desc id="desc">3D計測、QR認識、寸法線を含む自動計測技術の図</desc><rect width="760" height="520" rx="36" fill="#F7F9FC"/><g transform="translate(178 126)"><path d="M124 26 278 94 154 160 0 88Z" fill="#D7E9FF"/><path d="M0 88v128l154 72V160Z" fill="#BFDDFD"/><path d="M154 160v128l124-74V94Z" fill="#8EC9F6"/><path d="M0 88 124 26l154 68-124 66Z" fill="none" stroke="#133A63" stroke-width="3"/><path d="M0 88v128l154 72 124-74V94" fill="none" stroke="#133A63" stroke-width="3"/></g><g stroke="#2F80ED" stroke-width="3" stroke-linecap="round"><path d="M148 424h308"/><path d="M148 410v28M456 410v28"/><path d="M508 220v198"/><path d="M494 220h28M494 418h28"/></g><g fill="#133A63" font-family="Manrope,sans-serif" font-size="18" font-weight="800"><text x="286" y="462">W</text><text x="532" y="324">H</text></g><rect x="560" y="126" width="84" height="84" rx="16" fill="#fff" stroke="#DCE8F5" stroke-width="2"/><path d="M580 146h18v18h-18zm28 0h16v16h-16zm-28 32h16v16h-16zm28 28h18v18h-18z" fill="#133A63"/><g fill="#3DD5F3"><circle cx="158" cy="112" r="5"/><circle cx="206" cy="88" r="4"/><circle cx="256" cy="104" r="5"/><circle cx="126" cy="178" r="4"/><circle cx="492" cy="118" r="5"/></g></svg>
