<svg xmlns="http://www.w3.org/2000/svg" width="760" height="520" viewBox="0 0 760 520" role="img" aria-labelledby="title desc"><title id="title">サービス領域</title><desc id="desc">AI導入、開発、DX基盤、教育をつなぐサービス図</desc><defs><linearGradient id="g" x1="130" y1="100" x2="630" y2="420"><stop stop-color="#2F80ED"/><stop offset="1" stop-color="#3DD5F3"/></linearGradient></defs><rect width="760" height="520" rx="36" fill="#F7F9FC"/><circle cx="380" cy="260" r="96" fill="url(#g)" opacity=".95"/><text x="380" y="252" text-anchor="middle" font-family="Manrope,sans-serif" font-size="34" font-weight="900" fill="#fff">X</text><text x="380" y="288" text-anchor="middle" font-family="'Noto Sans JP',sans-serif" font-size="16" font-weight="800" fill="#fff">実行支援</text><g fill="#fff" stroke="#DCE8F5" stroke-width="2" font-family="'Noto Sans JP',sans-serif" font-weight="800" font-size="17"><rect x="92" y="92" width="190" height="96" rx="24"/><text x="187" y="148" text-anchor="middle" fill="#133A63">AI導入</text><rect x="478" y="92" width="190" height="96" rx="24"/><text x="573" y="148" text-anchor="middle" fill="#133A63">システム開発</text><rect x="92" y="332" width="190" height="96" rx="24"/><text x="187" y="388" text-anchor="middle" fill="#133A63">DX基盤</text><rect x="478" y="332" width="190" height="96" rx="24"/><text x="573" y="388" text-anchor="middle" fill="#133A63">人材育成</text></g><g stroke="#2F80ED" stroke-width="3" stroke-linecap="round" opacity=".5"><path d="M282 140 330 214"/><path d="M478 140 430 214"/><path d="M282 380 330 306"/><path d="M478 380 430 306"/></g></svg>
