<svg xmlns="http://www.w3.org/2000/svg" width="760" height="520" viewBox="0 0 760 520" role="img" aria-labelledby="title desc"><title id="title">技術研究</title><desc id="desc">点群、画像処理、AI実装を表す研究開発図</desc><rect width="760" height="520" rx="36" fill="#F7F9FC"/><g fill="#2F80ED" opacity=".52"><circle cx="160" cy="168" r="5"/><circle cx="210" cy="126" r="4"/><circle cx="258" cy="190" r="6"/><circle cx="188" cy="240" r="4"/><circle cx="294" cy="262" r="5"/><circle cx="132" cy="292" r="6"/><circle cx="244" cy="330" r="4"/></g><g stroke="#2F80ED" stroke-width="2" opacity=".32"><path d="M160 168 210 126 258 190 188 240 294 262 244 330 132 292 160 168"/></g><rect x="380" y="96" width="244" height="150" rx="28" fill="#fff" stroke="#DCE8F5" stroke-width="2"/><path d="M422 196c34-58 72-58 108 0 15-22 34-34 58-36" fill="none" stroke="#2F80ED" stroke-width="6" stroke-linecap="round"/><rect x="380" y="286" width="244" height="138" rx="28" fill="#133A63"/><text x="502" y="360" text-anchor="middle" font-family="Manrope,sans-serif" font-size="30" font-weight="900" fill="#fff">AI API</text><g stroke="#3DD5F3" stroke-width="3" stroke-linecap="round"><path d="M304 262h54"/><path d="M624 212h42"/><path d="M624 354h42"/></g></svg>
