<svg xmlns="http://www.w3.org/2000/svg" width="760" height="520" viewBox="0 0 760 520" role="img" aria-labelledby="technology-title technology-desc">
  <title id="technology-title">Technology</title>
  <desc id="technology-desc">X-PROSPECT premium vector illustration</desc>
  <defs>
    <linearGradient id="technology-blue" x1="96" y1="70" x2="660" y2="456" gradientUnits="userSpaceOnUse">
      <stop offset="0" stop-color="#0B2D57"/>
      <stop offset=".58" stop-color="#1F6FE5"/>
      <stop offset="1" stop-color="#34D4F4"/>
    </linearGradient>
    <linearGradient id="technology-surface" x1="80" y1="48" x2="680" y2="472" gradientUnits="userSpaceOnUse">
      <stop offset="0" stop-color="#FFFFFF"/>
      <stop offset="1" stop-color="#F5F9FF"/>
    </linearGradient>
    <filter id="technology-shadow" x="-20%" y="-20%" width="140%" height="150%">
      <feDropShadow dx="0" dy="24" stdDeviation="24" flood-color="#0B2D57" flood-opacity=".12"/>
    </filter>
    <filter id="technology-soft" x="-20%" y="-20%" width="140%" height="150%">
      <feDropShadow dx="0" dy="12" stdDeviation="14" flood-color="#0B2D57" flood-opacity=".08"/>
    </filter>
    <pattern id="technology-grid" width="32" height="32" patternUnits="userSpaceOnUse">
      <path d="M32 0H0v32" fill="none" stroke="#D7E5F5" stroke-width="1" opacity=".55"/>
    </pattern>
  </defs>
  <rect width="760" height="520" rx="40" fill="#F7FAFE"/>
  <circle cx="620" cy="120" r="106" fill="#78E0F2" opacity=".16"/>
  <circle cx="130" cy="430" r="150" fill="#2F80ED" opacity=".06"/>
  <rect x="44" y="40" width="672" height="440" rx="36" fill="url(#technology-surface)" stroke="#DDE8F5"/>
  <rect x="76" y="72" width="608" height="376" rx="28" fill="url(#technology-grid)" opacity=".45"/>

  <g filter="url(#technology-shadow)">
    <rect x="112" y="112" width="236" height="260" rx="28" fill="#FFFFFF" stroke="#DDE8F5" filter="url(#technology-soft)"/>
    <path d="M204 174l72 56-28 94-106-32 18-86z" fill="#AAB7C4" stroke="#74A7E8" stroke-width="3"/>
    <circle cx="204" cy="174" r="6" fill="#74A7E8"/><circle cx="276" cy="230" r="6" fill="#74A7E8"/><circle cx="248" cy="324" r="6" fill="#74A7E8"/><circle cx="142" cy="292" r="6" fill="#74A7E8"/>
    <rect x="412" y="116" width="216" height="112" rx="22" fill="#FFFFFF" stroke="#DDE8F5" filter="url(#technology-soft)"/><path d="M454 184c42-70 82-12 126-42" fill="none" stroke="#2F80ED" stroke-width="6" stroke-linecap="round"/>
    <rect x="412" y="270" width="216" height="112" rx="22" fill="#0B2D57" stroke="#0B2D57" filter="url(#technology-soft)"/><text x="520" y="338" text-anchor="middle" font-family="Manrope, Inter, sans-serif" font-size="28" font-weight="900" fill="#fff">AI API</text>
    <path d="M348 244L412 172" stroke="#34D4F4" stroke-width="3" stroke-linecap="round"/><path d="M348 280L412 326" stroke="#34D4F4" stroke-width="3" stroke-linecap="round"/>
  </g>

</svg>
