<svg xmlns="http://www.w3.org/2000/svg" width="920" height="680" viewBox="0 0 920 680" role="img" aria-labelledby="title desc"><title id="title">AIжҘӯеӢҷж”№е–„гғҜгғјгӮҜгғ•гғӯгғј</title><desc id="desc">жҘӯеӢҷгғҮгғјгӮҝгҒҢAIеҲҶжһҗгӮ’йҖҡгҒҳгҒҰж”№е–„жҸҗжЎҲгҒЁгӮ·гӮ№гғҶгғ йҖЈжҗәгҒ«гҒӨгҒӘгҒҢгӮӢеӣі</desc><defs><linearGradient id="g" x1="112" y1="82" x2="808" y2="598" gradientUnits="userSpaceOnUse"><stop stop-color="#2F80ED"/><stop offset="1" stop-color="#3DD5F3"/></linearGradient><filter id="s" x="0" y="0" width="920" height="680" filterUnits="userSpaceOnUse"><feDropShadow dx="0" dy="24" stdDeviation="28" flood-color="#133A63" flood-opacity=".16"/></filter></defs><rect width="920" height="680" rx="42" fill="#F7F9FC"/><circle cx="720" cy="132" r="116" fill="#3DD5F3" opacity=".14"/><circle cx="198" cy="526" r="156" fill="#2F80ED" opacity=".09"/><g filter="url(#s)"><rect x="336" y="188" width="248" height="248" rx="42" fill="#fff"/><rect x="378" y="230" width="164" height="164" rx="36" fill="url(#g)" opacity=".96"/><text x="460" y="305" text-anchor="middle" font-family="Manrope,'Noto Sans JP',sans-serif" font-size="40" font-weight="900" fill="#fff">AI</text><text x="460" y="340" text-anchor="middle" font-family="'Noto Sans JP',sans-serif" font-size="18" font-weight="700" fill="#fff">еҲҶжһҗгғ»жҸҗжЎҲ</text></g><g fill="none" stroke="#2F80ED" stroke-width="2.4" stroke-linecap="round" stroke-dasharray="7 12" opacity=".72"><path d="M276 188 C322 204 342 244 378 268"/><path d="M278 492 C334 448 356 412 390 378"/><path d="M642 188 C594 205 574 244 542 268"/><path d="M646 492 C590 449 568 410 530 378"/></g><g font-family="'Noto Sans JP',Manrope,sans-serif" filter="url(#s)"><rect x="82" y="104" width="222" height="104" rx="24" fill="#fff"/><text x="112" y="146" font-size="18" font-weight="800" fill="#133A63">гғЎгғјгғ«</text><text x="112" y="176" font-size="14" fill="#667085">еҲҶйЎһгғ»иҝ”дҝЎжЎҲ</text><rect x="86" y="472" width="236" height="104" rx="24" fill="#fff"/><text x="116" y="514" font-size="18" font-weight="800" fill="#133A63">иӯ°дәӢйҢІ</text><text x="116" y="544" font-size="14" fill="#667085">иҰҒзҙ„гғ»ToDoеҢ–</text><rect x="616" y="104" width="226" height="104" rx="24" fill="#fff"/><text x="646" y="146" font-size="18" font-weight="800" fill="#133A63">зӨҫеҶ…ж–Үжӣё</text><text x="646" y="176" font-size="14" fill="#667085">жӨңзҙўгғ»еӣһзӯ”з”ҹжҲҗ</text><rect x="596" y="472" width="252" height="104" rx="24" fill="#fff"/><text x="626" y="514" font-size="18" font-weight="800" fill="#133A63">жҘӯеӢҷгӮ·гӮ№гғҶгғ </text><text x="626" y="544" font-size="14" fill="#667085">йҖЈжҗәгғ»ж”№е–„жҸҗжЎҲ</text></g></svg>
